<svg xmlns="http://www.w3.org/2000/svg" viewBox="0 0 100 100" fill="none">
  <defs>
    <linearGradient id="favGradPrimary" x1="0%" y1="0%" x2="100%" y2="100%">
      <stop offset="0%" stop-color="#14b8a6"/>
      <stop offset="50%" stop-color="#8b5cf6"/>
      <stop offset="100%" stop-color="#ec4899"/>
    </linearGradient>
    <linearGradient id="favGradSpark" x1="0%" y1="0%" x2="100%" y2="100%">
      <stop offset="0%" stop-color="#2dd4bf"/>
      <stop offset="100%" stop-color="#a855f7"/>
    </linearGradient>
  </defs>

  <rect width="100" height="100" rx="28" fill="#090d16"/>
  <rect width="98" height="98" x="1" y="1" rx="27" stroke="url(#favGradPrimary)" stroke-width="2" opacity="0.6"/>

  {/* Academic Cap / Book Base */}
  <path d="M20 62 L50 78 L80 62 L80 42 L50 58 L20 42 Z" fill="url(#favGradPrimary)" opacity="0.85"/>
  
  {/* Open Book Wings */}
  <path d="M15 48 C 30 38, 45 42, 50 48 C 55 42, 70 38, 85 48 L 85 70 C 70 60, 55 64, 50 70 C 45 64, 30 60, 15 70 Z" fill="url(#favGradPrimary)" stroke="#ffffff" stroke-width="3.5" stroke-linejoin="round"/>

  {/* Center AI Sparkle */}
  <path d="M50 15 Q50 32 67 32 Q50 32 50 49 Q50 32 33 32 Q50 32 50 15 Z" fill="url(#favGradSpark)"/>
  
  {/* Outer Orbital Ring */}
  <circle cx="50" cy="50" r="44" stroke="url(#favGradSpark)" stroke-width="3.5" stroke-dasharray="14 10" opacity="0.75"/>
</svg>